<?xml version="1.0" encoding="UTF-8"?>
<svg version="1.1" xmlns="http://www.w3.org/2000/svg" width="512" height="512">
<path d="M0 0 C6.23222745 5.18235401 10.86276908 10.30739888 14.1796875 17.8125 C14.1796875 18.4725 14.1796875 19.1325 14.1796875 19.8125 C14.8396875 19.85375 15.4996875 19.895 16.1796875 19.9375 C21.69332617 21.54564461 25.97669806 24.92781655 29.0546875 29.75 C30.1796875 32.8125 30.1796875 32.8125 30.9296875 36.1875 C32.16388278 39.7666663 33.09657368 41.02420993 35.6171875 43.6875 C42.95367669 51.55782936 43.34881201 61.90233571 43.2421875 72.1875 C43.23767578 73.01894531 43.23316406 73.85039063 43.22851562 74.70703125 C43.21681914 76.74221897 43.19888685 78.77736923 43.1796875 80.8125 C42.8496875 80.8125 42.5196875 80.8125 42.1796875 80.8125 C41.92445313 79.18054688 41.92445313 79.18054688 41.6640625 77.515625 C41.41978434 76.03116541 41.17496285 74.54679515 40.9296875 73.0625 C40.76533203 71.99708984 40.76533203 71.99708984 40.59765625 70.91015625 C39.48701027 64.30473542 37.40989849 58.11759831 35.1796875 51.8125 C35.19539795 52.51632813 35.2111084 53.22015625 35.22729492 53.9453125 C35.70310946 78.55114806 34.51293759 99.17143931 17.6484375 118.57421875 C12.52366985 123.54239628 5.8354601 122.84759195 -0.8203125 122.8125 C-1.1438952 128.87667949 -1.31986404 133.5631727 2.1796875 138.8125 C4.90732482 140.17631866 6.95988551 139.83960214 10.0078125 139.734375 C40.3567323 138.98425571 40.3567323 138.98425571 51.1796875 148.8125 C52.84887695 151.74169922 52.84887695 151.74169922 54.29296875 155.1171875 C54.55224655 155.71878693 54.81152435 156.32038635 55.07865906 156.94021606 C55.62045046 158.20647104 56.15541647 159.47566615 56.68383789 160.74755859 C57.49014614 162.68260099 58.32227875 164.60493878 59.15820312 166.52734375 C59.68386944 167.76495604 60.20801 169.00321772 60.73046875 170.2421875 C61.20137939 171.35835449 61.67229004 172.47452148 62.1574707 173.62451172 C63.2213075 176.94230032 63.50952102 179.35453873 63.1796875 182.8125 C61.13974842 186.4703218 59.67549488 188.48196174 56.1796875 190.8125 C57.0132052 201.3123349 58.35872164 210.26257144 63.1796875 219.8125 C65.93360459 211.66974516 68.46809863 203.46751985 70.98144531 195.24780273 C71.33561523 194.08966064 71.68978516 192.93151855 72.0546875 191.73828125 C72.40917969 190.57893066 72.76367188 189.41958008 73.12890625 188.22509766 C74.11122108 185.0348568 75.11066193 181.85063987 76.1171875 178.66796875 C79.18844642 168.88673878 82.00449525 159.2138451 83.76269531 149.09985352 C85.40018727 140.2073066 89.10054086 134.24400482 95.6171875 128.0625 C96.17728516 127.51207031 96.73738281 126.96164063 97.31445312 126.39453125 C105.96033419 117.98068666 105.96033419 117.98068666 110.8046875 117.3125 C114.1796875 117.8125 114.1796875 117.8125 116.1171875 119.5 C117.32789597 122.13507137 117.4186746 123.94465478 117.1796875 126.8125 C119.934078 125.5009217 122.40671398 124.04430589 124.89453125 122.28125 C125.58095703 121.80042969 126.26738281 121.31960937 126.97460938 120.82421875 C128.40038801 119.81824549 129.82487433 118.81043804 131.24804688 117.80078125 C139.9411271 111.72295758 139.9411271 111.72295758 145.3046875 111.9375 C148.1796875 112.8125 148.1796875 112.8125 150.0546875 114.4375 C151.67425581 117.85658865 151.61227216 120.04283365 151.1796875 123.8125 C150.03830181 126.91548793 148.67628038 129.86608277 147.1796875 132.8125 C147.61796875 133.31394531 148.05625 133.81539062 148.5078125 134.33203125 C153.36957772 140.13255195 157.51154258 146.23392738 161.5546875 152.625 C162.07836914 153.44911377 162.60205078 154.27322754 163.14160156 155.12231445 C165.53634884 158.95195997 167.58127193 162.57247772 169.1796875 166.8125 C169.92653809 166.83231934 170.67338867 166.85213867 171.44287109 166.87255859 C174.81384355 166.96758211 178.18417679 167.07735259 181.5546875 167.1875 C182.7303125 167.2184375 183.9059375 167.249375 185.1171875 167.28125 C186.23867188 167.31992188 187.36015625 167.35859375 188.515625 167.3984375 C189.55251465 167.4298584 190.5894043 167.4612793 191.65771484 167.49365234 C194.1796875 167.8125 194.1796875 167.8125 196.1796875 169.8125 C196.77723694 172.21353149 196.77723694 172.21353149 197.27368164 175.27978516 C197.56074478 177.01007965 197.56074478 177.01007965 197.85360718 178.77532959 C198.05531525 180.03798645 198.25702332 181.30064331 198.46484375 182.6015625 C198.68292592 183.92465857 198.90199034 185.24759307 199.12197876 186.57037354 C199.59023478 189.38979251 200.05493427 192.20976211 200.51693726 195.0302124 C203.85047433 215.33757637 207.21939623 235.63213588 211.8671875 255.6875 C212.13728638 256.85307938 212.13728638 256.85307938 212.4128418 258.04220581 C213.46371355 262.54762329 214.54137945 267.04622998 215.63098145 271.54241943 C217.17564894 277.93294424 218.68599471 284.33172195 220.20108032 290.72930908 C220.72544226 292.92973064 221.25857031 295.12785966 221.79370117 297.32568359 C222.1112802 298.64808441 222.4287508 299.97051127 222.74609375 301.29296875 C223.02396729 302.43660889 223.30184082 303.58024902 223.58813477 304.75854492 C224.12719993 307.54152726 224.30057065 309.98936785 224.1796875 312.8125 C221.28265806 314.43704311 218.98323423 315.11978348 215.6809082 315.39086914 C214.79510574 315.46757339 213.90930328 315.54427765 212.99665833 315.62330627 C212.04256577 315.69734177 211.08847321 315.77137726 210.10546875 315.84765625 C209.10823288 315.93123886 208.11099701 316.01482147 207.08354187 316.10093689 C203.88700504 316.36666226 200.68965412 316.62073549 197.4921875 316.875 C195.38991492 317.04942012 193.28770054 317.2245432 191.18554688 317.40039062 C186.08201261 317.82344251 180.97712876 318.22420327 175.87057495 318.60903931 C174.23143739 318.73297614 172.59248314 318.85941355 170.95388794 318.99032593 C157.1886148 320.08011598 143.39191777 319.99986556 129.59204102 319.99780273 C126.14819607 319.99769988 122.7045516 320.01151895 119.26075459 320.02857494 C115.93815618 320.04236918 112.6155954 320.04178204 109.29296875 320.04296875 C107.45077507 320.05374702 107.45077507 320.05374702 105.57136536 320.06474304 C104.42544418 320.06166641 103.27952301 320.05858978 102.09887695 320.05541992 C100.59693535 320.05755745 100.59693535 320.05755745 99.06465149 320.05973816 C95.85676672 319.78482605 93.186069 318.93823388 90.1796875 317.8125 C89.9764761 304.12959918 90.5957591 290.48046237 91.1796875 276.8125 C89.1996875 276.1525 87.2196875 275.4925 85.1796875 274.8125 C84.8496875 270.8525 84.5196875 266.8925 84.1796875 262.8125 C83.63441406 263.49957031 83.08914063 264.18664062 82.52734375 264.89453125 C74.83613486 274.08453982 74.83613486 274.08453982 68.56640625 275.60546875 C60.99645407 276.26210945 54.78281711 274.39475256 48.97265625 269.54296875 C46.14512652 266.81400215 43.59743629 263.9079511 41.1796875 260.8125 C40.77170243 265.47518655 40.45134842 270.140153 40.1796875 274.8125 C40.09976562 276.12089844 40.01984375 277.42929687 39.9375 278.77734375 C39.65782827 287.14281879 40.85866856 293.66627598 43.8046875 301.55859375 C45.60612208 306.73017027 46.50650041 312.05151481 47.4296875 317.4375 C47.59243164 318.36699463 47.75517578 319.29648926 47.92285156 320.25415039 C55.19211229 364.26713185 52.64049553 428.27909923 33.1796875 468.8125 C31.03125 471.18359375 31.03125 471.18359375 29.1796875 472.8125 C25.3046875 470.9375 25.3046875 470.9375 24.1796875 469.8125 C22.50738409 469.72420295 20.83134555 469.70559345 19.15673828 469.71484375 C17.54969528 469.71979858 17.54969528 469.71979858 15.91018677 469.72485352 C14.74357513 469.73315186 13.5769635 469.7414502 12.375 469.75 C10.58991531 469.75567993 10.58991531 469.75567993 8.76876831 469.76147461 C3.65325831 469.77789962 -1.46217347 469.80598612 -6.57763672 469.83300781 C-10.30175409 469.85103768 -14.02585862 469.86316924 -17.75 469.875 C-18.91256317 469.88329834 -20.07512634 469.89159668 -21.2729187 469.90014648 C-22.88941818 469.90510132 -22.88941818 469.90510132 -24.53857422 469.91015625 C-25.96301346 469.91801147 -25.96301346 469.91801147 -27.41622925 469.92602539 C-29.8203125 469.8125 -29.8203125 469.8125 -32.8203125 468.8125 C-33.93603516 467.15209961 -33.93603516 467.15209961 -34.984375 464.96484375 C-35.37971436 464.1445166 -35.77505371 463.32418945 -36.18237305 462.47900391 C-36.59914307 461.57843262 -37.01591309 460.67786133 -37.4453125 459.75 C-37.88335205 458.81333496 -38.3213916 457.87666992 -38.77270508 456.91162109 C-46.75830294 439.51437442 -52.81163072 421.48865285 -58.09350586 403.1105957 C-58.88095265 400.62076143 -59.84013673 398.23206558 -60.8203125 395.8125 C-60.91609589 396.67249603 -61.01187927 397.53249207 -61.11056519 398.41854858 C-62.01363981 406.51280516 -62.92505052 414.60606968 -63.84589958 422.6983242 C-64.3190509 426.85892599 -64.78894095 431.01984292 -65.25146484 435.18164062 C-65.69772825 439.19604539 -66.15244425 443.20940947 -66.61310196 447.22218704 C-66.78757889 448.75528408 -66.95897822 450.28873453 -67.127285 451.82252121 C-67.36307725 453.96651234 -67.60966335 456.10899951 -67.85888672 458.25146484 C-67.99656464 459.47280121 -68.13424255 460.69413757 -68.27609253 461.95248413 C-68.8203125 464.8125 -68.8203125 464.8125 -70.8203125 466.8125 C-72.61735153 466.90251064 -72.61735153 466.90251064 -74.83221436 466.67344666 C-75.67140034 466.59201447 -76.51058632 466.51058229 -77.37520218 466.42668247 C-78.76100542 466.27529521 -78.76100542 466.27529521 -80.17480469 466.12084961 C-81.1499641 466.02290824 -82.12512352 465.92496687 -83.12983322 465.82405758 C-86.36110985 465.49694856 -89.59058935 465.15457791 -92.8203125 464.8125 C-95.02125763 464.58793052 -97.22230907 464.36440063 -99.42346191 464.14187622 C-113.44126488 462.71643581 -127.45151571 461.21654527 -141.46175003 459.71870518 C-149.21920188 458.88954027 -156.97752246 458.06966986 -164.7371819 457.26141888 C-170.24013036 456.68744669 -175.7419112 456.10304704 -181.24292827 455.51085323 C-184.51387776 455.15902727 -187.78528107 454.81328895 -191.0577774 454.47610664 C-194.68226933 454.10172259 -198.30453674 453.71036564 -201.92675781 453.31469727 C-203.0070929 453.20706558 -204.08742798 453.0994339 -205.20050049 452.98854065 C-206.18115479 452.87792297 -207.16180908 452.7673053 -208.17218018 452.65333557 C-209.02668385 452.56283212 -209.88118752 452.47232866 -210.76158524 452.37908268 C-212.8203125 451.8125 -212.8203125 451.8125 -214.8203125 448.8125 C-214.43994141 446.9375 -214.43994141 446.9375 -213.546875 444.8125 C-213.22009766 444.01618164 -212.89332031 443.21986328 -212.55664062 442.39941406 C-212.18990234 441.54573242 -211.82316406 440.69205078 -211.4453125 439.8125 C-210.89907227 438.49717285 -210.89907227 438.49717285 -210.34179688 437.15527344 C-209.18097232 434.36869716 -208.0011664 431.59063954 -206.8203125 428.8125 C-206.04570929 426.96402973 -205.2722493 425.11507992 -204.5 423.265625 C-202.62143086 418.77494232 -200.72558406 414.29191505 -198.8203125 409.8125 C-199.67463867 409.54099121 -200.52896484 409.26948242 -201.40917969 408.98974609 C-206.80263227 407.12836416 -211.94759243 404.74678103 -217.11376953 402.33935547 C-218.40547473 401.74395255 -219.70268313 401.16032923 -221.00537109 400.58935547 C-231.27373413 396.08046583 -237.33231349 391.03654945 -243.8203125 381.8125 C-244.38733887 381.0174707 -244.95436523 380.22244141 -245.53857422 379.40332031 C-246.95758598 377.3397263 -248.30776968 375.24989146 -249.6328125 373.125 C-250.09075195 372.40094971 -250.54869141 371.67689941 -251.02050781 370.9309082 C-252.29845018 368.89821253 -253.5616177 366.85715034 -254.8203125 364.8125 C-255.42746094 363.84054687 -256.03460938 362.86859375 -256.66015625 361.8671875 C-259.8902973 356.44484547 -259.8902973 356.44484547 -259.60693359 353.88452148 C-258.56792361 351.14768792 -257.30966775 350.43970329 -254.84375 348.8984375 C-254.02616211 348.3837793 -253.20857422 347.86912109 -252.36621094 347.33886719 C-248.42557186 344.97629761 -244.45405193 342.68247264 -240.4453125 340.4375 C-232.11337319 335.72514293 -223.8572751 330.89737438 -215.6328125 326 C-205.40361483 319.91195633 -195.12203994 313.92599236 -184.80004883 307.99633789 C-177.61114375 303.8614227 -170.47205924 299.65483344 -163.3828125 295.3515625 C-159.25079036 292.86982969 -157.63709454 292.89421496 -152.8203125 293.25 C-140.76537219 293.7321358 -129.05490471 288.65225155 -117.8203125 284.8125 C-120.51674982 281.20030218 -123.21211318 277.59055679 -125.98828125 274.0390625 C-141.17977877 254.46935776 -152.38471333 231.9192487 -162.5703125 209.4375 C-165.81723942 202.29805836 -169.73801303 196.39954803 -174.75390625 190.37890625 C-178.72491051 185.44705408 -178.72491051 185.44705408 -178.9375 181.8046875 C-177.21342141 166.73290372 -168.38796917 154.27775689 -157.8203125 143.8125 C-154.59657573 141.66334215 -153.55327576 141.42963197 -149.8203125 141.8125 C-147.8203125 143.8125 -147.8203125 143.8125 -147.5546875 145.765625 C-147.5869629 150.51010936 -147.99080424 154.35307362 -149.8203125 158.8125 C-147.933125 158.255625 -147.933125 158.255625 -146.0078125 157.6875 C-143.86328125 157.0546875 -143.86328125 157.0546875 -141.8203125 156.8125 C-140.3353125 157.8025 -140.3353125 157.8025 -138.8203125 158.8125 C-138.0452962 164.90191382 -139.46925851 169.15701084 -141.9453125 174.7109375 C-144.23195807 182.81627938 -142.70436379 189.68762395 -139.4453125 197.25 C-139.08663086 198.10762939 -138.72794922 198.96525879 -138.35839844 199.84887695 C-129.54389134 220.47459697 -117.80064077 240.83217173 -101.8203125 256.8125 C-101.8925 256.03132813 -101.9646875 255.25015625 -102.0390625 254.4453125 C-103.07079828 241.57727462 -102.91559552 228.71382106 -102.8203125 215.8125 C-103.43519531 215.63074219 -104.05007812 215.44898438 -104.68359375 215.26171875 C-105.49183594 215.01035156 -106.30007812 214.75898438 -107.1328125 214.5 C-107.93332031 214.25636719 -108.73382813 214.01273438 -109.55859375 213.76171875 C-111.96315799 212.7525493 -113.22489051 211.86224958 -114.8203125 209.8125 C-115 207.08203125 -115 207.08203125 -114.6953125 203.625 C-114.63964111 202.99223145 -114.58396973 202.35946289 -114.52661133 201.70751953 C-114.31203733 199.40670475 -114.06559939 197.11024154 -113.8203125 194.8125 C-113.72443848 193.83168457 -113.62856445 192.85086914 -113.52978516 191.84033203 C-113.21086976 188.62002822 -112.86344305 185.40394298 -112.5078125 182.1875 C-112.40259277 181.14440674 -112.29737305 180.10131348 -112.18896484 179.02661133 C-111.68248367 174.76517158 -111.15312717 171.45531226 -109.16796875 167.62109375 C-105.88615327 165.09283989 -103.65949501 165.31068599 -99.5703125 165.5 C-98.30703125 165.54511719 -97.04375 165.59023437 -95.7421875 165.63671875 C-94.77796875 165.69472656 -93.81375 165.75273437 -92.8203125 165.8125 C-92.55347656 165.05066406 -92.28664062 164.28882813 -92.01171875 163.50390625 C-89.25323782 157.27245261 -83.33785345 154.36704036 -77.33325195 151.77856445 C-73.12645175 150.16131891 -68.80205031 149.07113487 -64.4453125 147.9375 C-53.97978245 145.05241288 -44.66548309 142.16181294 -37.84375 133.23046875 C-34.24906726 124.73768776 -36.66668985 117.85999286 -39.7578125 109.5625 C-40.52362799 107.45554853 -41.28300257 105.34624211 -42.03515625 103.234375 C-42.37667725 102.31237305 -42.71819824 101.39037109 -43.07006836 100.44042969 C-43.8345172 97.76274426 -43.96323931 95.58096417 -43.8203125 92.8125 C-44.8721875 92.750625 -45.9240625 92.68875 -47.0078125 92.625 C-52.58684615 91.43602562 -54.80101652 88.2799189 -57.98828125 83.69140625 C-58.65472656 82.59699219 -59.32117188 81.50257812 -60.0078125 80.375 C-60.68199219 79.28316406 -61.35617188 78.19132812 -62.05078125 77.06640625 C-64.72590586 72.14724776 -66.09690721 68.04650419 -65.9453125 62.4375 C-65.92726562 61.56351562 -65.90921875 60.68953125 -65.890625 59.7890625 C-65.86742187 59.13679688 -65.84421875 58.48453125 -65.8203125 57.8125 C-66.8103125 57.5340625 -66.8103125 57.5340625 -67.8203125 57.25 C-75.4623702 53.58818068 -80.53485238 47.7166053 -83.5703125 39.875 C-84.94557933 28.52904868 -81.52623475 18.95305644 -74.8203125 9.8125 C-65.84509873 -1.06354173 -54.36177149 -8.45862489 -40.38671875 -10.84765625 C-25.65736491 -12.25122009 -11.85862418 -9.02033053 0 0 Z M141.1796875 137.8125 C139.6946875 139.7925 139.6946875 139.7925 138.1796875 141.8125 C142.1396875 150.0625 146.0996875 158.3125 150.1796875 166.8125 C154.1396875 166.8125 158.0996875 166.8125 162.1796875 166.8125 C158.08910817 159.29406089 153.80684667 151.99739362 148.8671875 145 C148.44711426 144.39591309 148.02704102 143.79182617 147.59423828 143.16943359 C145.06670193 139.63544496 145.06670193 139.63544496 141.1796875 137.8125 Z M132.1796875 144.8125 C129.8696875 146.1325 127.5596875 147.4525 125.1796875 148.8125 C125.1796875 154.4225 125.1796875 160.0325 125.1796875 165.8125 C131.1196875 165.8125 137.0596875 165.8125 143.1796875 165.8125 C141.91736334 162.87107482 140.64531678 159.93454902 139.3671875 157 C138.83254883 155.74993164 138.83254883 155.74993164 138.28710938 154.47460938 C137.93583984 153.67216797 137.58457031 152.86972656 137.22265625 152.04296875 C136.90321045 151.30457764 136.58376465 150.56618652 136.25463867 149.80541992 C135.13827727 147.73572696 133.91908797 146.37861026 132.1796875 144.8125 Z M111.1796875 156.8125 C109.27986971 159.39152726 107.76435263 162.01603213 106.1796875 164.8125 C110.4696875 165.1425 114.7596875 165.4725 119.1796875 165.8125 C118.8496875 161.5225 118.5196875 157.2325 118.1796875 152.8125 C115.56727384 152.8125 113.07070235 155.16577893 111.1796875 156.8125 Z M-68.8203125 213.8125 C-69.47463992 219.64238634 -69.92719069 225.43111644 -70.1105957 231.29443359 C-70.66702337 248.65433527 -72.23667327 265.95729263 -77.1484375 282.66796875 C-78.39859283 288.51898641 -76.01744493 293.09932255 -73.8828125 298.5 C-70.01659975 308.58616942 -68.5243303 318.02991159 -67.8203125 328.8125 C-65.31712676 328.3115715 -65.31712676 328.3115715 -62.8203125 326.8125 C-61.54587236 323.75202069 -61.54587236 323.75202069 -60.8828125 320.0625 C-56.73223984 302.32901258 -48.00736615 289.45009308 -35.0078125 276.9921875 C-32.61537705 274.60829647 -31.95766305 273.5973603 -31.3828125 270.3125 C-32.5804256 260.73159518 -40.86011047 252.93402964 -46.8203125 245.8125 C-54.89393062 236.12415826 -61.79327877 225.89360118 -65.8203125 213.8125 C-66.8103125 213.8125 -67.8003125 213.8125 -68.8203125 213.8125 Z M-115.01855469 290.02270508 C-115.79360352 290.28978271 -116.56865234 290.55686035 -117.3671875 290.83203125 C-118.63369141 291.25258789 -118.63369141 291.25258789 -119.92578125 291.68164062 C-120.79847656 291.99294922 -121.67117187 292.30425781 -122.5703125 292.625 C-123.45847656 292.92470703 -124.34664062 293.22441406 -125.26171875 293.53320312 C-127.45442278 294.2758932 -129.63939954 295.03600121 -131.8203125 295.8125 C-131.8203125 296.4725 -131.8203125 297.1325 -131.8203125 297.8125 C-124.61977114 299.08408496 -118.55036022 298.92437528 -111.8203125 295.8125 C-110.07012484 294.29873518 -110.07012484 294.29873518 -108.8203125 292.8125 C-111.50329248 290.29007754 -111.50329248 290.29007754 -115.01855469 290.02270508 Z M-81.8203125 295.8125 C-85.18203209 299.6086572 -87.85411733 303.54870061 -89.7578125 308.25 C-91.60407596 312.75613453 -94.24898975 316.22162206 -97.33203125 319.96484375 C-98.87725745 321.74905952 -98.87725745 321.74905952 -99.8203125 323.8125 C-98.8303125 323.4825 -97.8403125 323.1525 -96.8203125 322.8125 C-95.48505533 322.73276524 -94.14619167 322.70478662 -92.80859375 322.71484375 C-91.67260742 322.71967773 -91.67260742 322.71967773 -90.51367188 322.72460938 C-89.72798828 322.73298828 -88.94230469 322.74136719 -88.1328125 322.75 C-87.33552734 322.75451172 -86.53824219 322.75902344 -85.71679688 322.76367188 C-83.75126993 322.7754415 -81.78578165 322.79337652 -79.8203125 322.8125 C-77.3453125 327.2675 -77.3453125 327.2675 -74.8203125 331.8125 C-74.4903125 331.8125 -74.1603125 331.8125 -73.8203125 331.8125 C-73.36299386 324.3937754 -73.80891085 317.61848064 -75.6328125 310.4375 C-75.79813477 309.78458984 -75.96345703 309.13167969 -76.13378906 308.45898438 C-77.32836872 304.03611506 -78.94318876 299.97551942 -80.8203125 295.8125 C-81.1503125 295.8125 -81.4803125 295.8125 -81.8203125 295.8125 Z M-108.4453125 299.8125 C-109.5590625 300.4725 -110.6728125 301.1325 -111.8203125 301.8125 C-111.4903125 305.7725 -111.1603125 309.7325 -110.8203125 313.8125 C-102.56075441 314.05070926 -102.56075441 314.05070926 -96.0078125 310 C-94.77621872 306.694143 -94.56569314 305.94904839 -95.8203125 302.8125 C-97.35479679 301.26814211 -97.35479679 301.26814211 -99.2578125 300.0625 C-99.87527344 299.63453125 -100.49273437 299.2065625 -101.12890625 298.765625 C-104.16722492 297.05350085 -105.65237796 298.15742768 -108.4453125 299.8125 Z " fill="#42333D" transform="translate(273.8203125,25.1875)"/>
<path d="M0 0 C2.68775347 5.37550694 1.78222538 14.33411977 0.12890625 19.96875 C-5.23302405 31.36065437 -14.77948506 37.1798116 -26 42 C-29.06562733 42.97890597 -31.80561474 43.55166523 -35 44 C-34.505 45.98 -34.505 45.98 -34 48 C-29.44106691 47.22383756 -25.53831427 45.64782114 -21.3046875 43.83984375 C-19 43 -19 43 -16 43 C-15.59927099 72.16074203 -16.45288812 100.94531156 -19 130 C-17.68 130 -16.36 130 -15 130 C-14.34 123.07 -13.68 116.14 -13 109 C-10.47428624 111.52571376 -10.27929541 113.27705308 -9.5 116.75 C-9.2628125 117.77609375 -9.025625 118.8021875 -8.78125 119.859375 C-6.5078812 131.39010606 -5.57617331 142.64142638 -5.51953125 154.36987305 C-5.49987624 156.8279781 -5.43747689 159.28289133 -5.375 161.74023438 C-5.25450961 170.62329985 -5.63684238 177.25133997 -12 184 C-12.44456543 184.54503174 -12.88913086 185.09006348 -13.34716797 185.65161133 C-23.52720599 198.07742025 -35.81419943 206.6468502 -49.94335938 214.01318359 C-54.00879194 216.05568864 -54.00879194 216.05568864 -56 220 C-45.87673676 218.08995033 -37.5649213 212.49447781 -29 207 C-30.9143272 213.65685638 -34.55055879 217.81788922 -39 223 C-39.74121094 223.86496094 -40.48242188 224.72992188 -41.24609375 225.62109375 C-45.34486159 230.28814829 -49.52736393 234.53513302 -54.37109375 238.4296875 C-56.15172571 240.14626795 -57.02731813 241.74181394 -58 244 C-52.99071537 244 -51.35001 242.09045209 -47.9375 238.8125 C-47.36821777 238.27367187 -46.79893555 237.73484375 -46.21240234 237.1796875 C-35.66057052 227.01235915 -26.53005516 216.01315609 -21.0625 202.25 C-18.88264405 197.05043018 -15.10067247 193.74026181 -11 190 C-9.66321553 188.67012676 -8.32943282 187.33722247 -7 186 C-6.63032273 195.77708352 -7.75153651 205.17559815 -9.1875 214.8125 C-9.29981964 215.58012665 -9.41213928 216.3477533 -9.52786255 217.13864136 C-11.97700897 233.8101037 -14.9394802 250.24625966 -20.125 266.3125 C-20.36661865 267.06668213 -20.6082373 267.82086426 -20.85717773 268.59790039 C-22.12332918 272.28712152 -22.66366377 273.77577585 -26 276 C-28.41081238 276.24050903 -28.41081238 276.24050903 -31.29760742 276.22705078 C-32.37850143 276.22689972 -33.45939545 276.22674866 -34.57304382 276.22659302 C-35.73874405 276.21627045 -36.90444427 276.20594788 -38.10546875 276.1953125 C-39.89698112 276.19106766 -39.89698112 276.19106766 -41.72468567 276.18673706 C-45.54572497 276.17552677 -49.36653134 276.15042037 -53.1875 276.125 C-55.77538724 276.11497131 -58.36327816 276.10584527 -60.95117188 276.09765625 C-67.30086096 276.07558465 -73.65041384 276.0420986 -80 276 C-79.81913345 275.22651215 -79.63826691 274.45302429 -79.45191956 273.65609741 C-78.88461902 270.32186355 -79.58775443 268.88495292 -81.02734375 265.8515625 C-81.4860083 264.85785645 -81.94467285 263.86415039 -82.41723633 262.84033203 C-82.91892334 261.77927246 -83.42061035 260.71821289 -83.9375 259.625 C-89.02178017 248.48615098 -93.32499019 237.27721918 -97.12988281 225.64453125 C-97.94704116 223.16095682 -98.79355981 220.68954246 -99.6484375 218.21875 C-105.28810293 201.59509777 -109.71329903 183.61163102 -110 166 C-110.01901367 165.22205078 -110.03802734 164.44410156 -110.05761719 163.64257812 C-110.30010617 152.94921144 -110.35544229 142.49119409 -108 132 C-107.75507813 130.88753906 -107.51015625 129.77507812 -107.2578125 128.62890625 C-104.07602994 116.00032679 -97.96035156 103.58368036 -89 94 C-88.67 94 -88.34 94 -88 94 C-88.01047363 94.64960693 -88.02094727 95.29921387 -88.03173828 95.96850586 C-88.07372962 98.95813001 -88.09946167 101.94769179 -88.125 104.9375 C-88.14175781 105.95908203 -88.15851563 106.98066406 -88.17578125 108.03320312 C-88.25643563 120.65561297 -85.50228979 132.62107413 -76.5 142.0625 C-72.77493009 145.42654992 -69.24918243 147.85331419 -64.125 148.1875 C-63.42375 148.125625 -62.7225 148.06375 -62 148 C-62.64061528 144.9707428 -62.64061528 144.9707428 -64.6015625 144.078125 C-65.26929688 143.80484375 -65.93703125 143.5315625 -66.625 143.25 C-75.53706067 138.99325546 -79.74096189 132.13069355 -83 123 C-86.02834398 111.84496077 -85.12765773 96.73530734 -81 86 C-79.45703125 84.34375 -79.45703125 84.34375 -78 83 C-76.21135734 77.63407201 -76.52106777 73.47242367 -78.875 68.375 C-82.47040703 61.6963808 -87.28659213 55.90565914 -92 50 C-111 26.15329341 -111 26.15329341 -111 18 C-109.90220215 17.93268677 -109.90220215 17.93268677 -108.78222656 17.86401367 C-83.6832184 16.29776378 -58.55300572 14.72870372 -34 9 C-33.13342773 8.80116211 -32.26685547 8.60232422 -31.37402344 8.39746094 C-18.34168924 5.43256577 -18.34168924 5.43256577 -5.875 0.69921875 C-4 0 -4 0 0 0 Z " fill="#B3D8FD" transform="translate(324,219)"/>
<path d="M0 0 C0.99 1.485 0.99 1.485 2 3 C4.42521494 3.58189266 4.42521494 3.58189266 7.125 3.6875 C8.49011719 3.78611328 8.49011719 3.78611328 9.8828125 3.88671875 C10.58148438 3.92410156 11.28015625 3.96148437 12 4 C11.21991939 11.42933912 9.73789578 18.68385557 8.25 26 C7.97763139 27.34852078 7.70541681 28.69707268 7.43334961 30.0456543 C5.00871094 42.04156015 2.52563459 54.02497779 0 66 C-0.38841064 67.84537354 -0.38841064 67.84537354 -0.78466797 69.72802734 C-2.83984894 79.48890328 -4.91248169 89.24598958 -7 99 C-7.16064941 99.75104004 -7.32129883 100.50208008 -7.48681641 101.27587891 C-8.45552948 105.8013308 -9.42924689 110.32566292 -10.40948486 114.84863281 C-10.71864263 116.27739813 -11.02655456 117.70643361 -11.33319092 119.13574219 C-11.75758586 121.11210545 -12.18724864 123.08733535 -12.6171875 125.0625 C-12.98239502 126.75052734 -12.98239502 126.75052734 -13.35498047 128.47265625 C-14 131 -14 131 -15 132 C-24.34270101 132.79183554 -33.79520319 131.27728533 -43.0625 130.1875 C-44.66798478 130.00349791 -46.27353589 129.82007368 -47.87915039 129.63720703 C-52.5870185 129.09925633 -57.29362385 128.55082984 -62 128 C-66.64577338 127.45781726 -71.2915858 126.91597478 -75.9375 126.375 C-77.47748657 126.19493408 -77.47748657 126.19493408 -79.04858398 126.01123047 C-89.01844309 124.85737474 -99.00456223 123.90192379 -109 123 C-108.13824825 116.45846471 -105.63988807 110.76311119 -103.07226562 104.74926758 C-102.25057671 102.81385839 -101.45326783 100.86950373 -100.65625 98.92382812 C-100.13167507 97.68427409 -99.60568097 96.44531948 -99.078125 95.20703125 C-98.60793945 94.0878833 -98.13775391 92.96873535 -97.65332031 91.81567383 C-95.79270552 88.6469688 -94.3114828 87.5138302 -91 86 C-90.34 86 -89.68 86 -89 86 C-88.77430328 85.44931351 -88.54860657 84.89862701 -88.31607056 84.33125305 C-86.59749556 81.28701414 -84.41782957 79.17112031 -81.94287109 76.69995117 C-81.42873657 76.1839183 -80.91460205 75.66788544 -80.3848877 75.13621521 C-78.68591614 73.43354343 -76.97985512 71.73817549 -75.2734375 70.04296875 C-74.0844026 68.85512707 -72.89573835 67.66691427 -71.70742798 66.47834778 C-69.21379498 63.98627879 -66.71684073 61.49760293 -64.21728516 59.01147461 C-61.03160407 55.84269987 -57.85246086 52.66746682 -54.67560387 49.48984814 C-52.21875195 47.03326991 -49.75928821 44.57932049 -47.29896927 42.12621498 C-46.12714652 40.95755061 -44.9559075 39.78830059 -43.78528976 38.61842918 C-38.21980879 33.06037302 -32.64958257 27.56723629 -26.66702271 22.45256042 C-24.23513326 20.33353328 -22.00280582 18.04436363 -19.765625 15.72265625 C-18.86199219 14.79775391 -17.95835937 13.87285156 -17.02734375 12.91992188 C-15.62663262 11.47882456 -14.22605971 10.03755634 -12.83447266 8.58764648 C-11.46654151 7.16542483 -10.08501854 5.7563153 -8.703125 4.34765625 C-7.89520508 3.51242432 -7.08728516 2.67719238 -6.25488281 1.81665039 C-4 0 -4 0 0 0 Z " fill="#FD7785" transform="translate(176,349)"/>
<path d="M0 0 C4.62 0 9.24 0 14 0 C14.99 4.29 15.98 8.58 17 13 C17.99 13 18.98 13 20 13 C19.67 9.04 19.34 5.08 19 1 C22.91036811 0.97678541 26.82055602 0.95695263 30.73095703 0.94506836 C32.6995611 0.93768907 34.66814286 0.92496942 36.63671875 0.91210938 C42.68355463 0.89676208 48.72282719 0.94520223 54.76171875 1.2734375 C55.70233154 1.32290527 56.64294434 1.37237305 57.61206055 1.42333984 C60.58974854 2.14241755 61.40650411 3.16448723 63.0625 5.6875 C63.74777043 7.10662346 64.39557352 8.54460467 65 10 C65.598125 11.155 66.19625 12.31 66.8125 13.5 C67.4003125 14.7375 67.4003125 14.7375 68 16 C68.99 16 69.98 16 71 16 C70.42163139 10.21631389 68.85937886 7.71875773 66 2 C71.94 2 77.88 2 84 2 C85.41584743 5.53961858 86.29556412 7.91302592 86.86621094 11.51025391 C87.07748627 12.81352631 87.07748627 12.81352631 87.29302979 14.14312744 C87.51149567 15.5456778 87.51149567 15.5456778 87.734375 16.9765625 C87.89307068 17.96348083 88.05176636 18.95039917 88.215271 19.96722412 C88.73194837 23.18568966 89.24091262 26.40532604 89.75 29.625 C90.46085026 34.06814185 91.17569819 38.51063751 91.890625 42.953125 C92.06835449 44.06082245 92.24608398 45.1685199 92.42919922 46.30978394 C94.28029785 57.81532301 96.25760036 69.29803437 98.27246094 80.77587891 C98.39075256 81.45507385 98.50904419 82.1342688 98.63092041 82.83404541 C98.94395494 84.63109548 99.25993683 86.42763147 99.57617188 88.22412109 C100 91 100 91 100 94 C81.64850289 91.83621213 63.39004503 89.16786645 45.125 86.375 C41.10965346 85.76156783 37.09415445 85.14918133 33.07809448 84.54043579 C30.60679801 84.16556501 28.13584516 83.78841878 25.66531372 83.40853882 C19.12169251 82.41549135 12.59416644 81.57387847 6 81 C5.21015716 72.50675561 4.42733842 64.01290362 3.65309143 55.51822472 C3.29323346 51.5723788 2.93110245 47.62677102 2.56347656 43.68164062 C2.20773486 39.86308503 1.85835586 36.04399257 1.51309204 32.22447586 C1.38134875 30.77889492 1.24744443 29.33350898 1.11117554 27.88834763 C0.2322812 18.54811488 -0.12831506 9.38303911 0 0 Z " fill="#FDDBA9" transform="translate(380,196)"/>
<path d="M0 0 C1.46386719 2.31323242 1.46386719 2.31323242 2.796875 5.35546875 C3.28027344 6.45310547 3.76367188 7.55074219 4.26171875 8.68164062 C4.75285156 9.83857422 5.24398437 10.99550781 5.75 12.1875 C6.25660156 13.32509766 6.76320313 14.46269531 7.28515625 15.63476562 C11.49447231 25.35249932 11.49447231 25.35249932 11 31 C-13.7518372 57.30660085 -83.32689107 55.63070691 -117 57 C-123.93659583 57.20540912 -130.87319403 57.25567594 -137.8125 57.25 C-138.6292923 57.24940582 -139.44608459 57.24881165 -140.28762817 57.24819946 C-153.78971087 57.21028913 -153.78971087 57.21028913 -155 56 C-154.96037918 53.31797529 -154.85291117 50.67520228 -154.6875 48 C-154.61583618 46.80213867 -154.61583618 46.80213867 -154.54272461 45.58007812 C-154.17567052 39.87308749 -153.68625503 34.18460658 -153.0625 28.5 C-152.95071411 27.41525391 -152.95071411 27.41525391 -152.83666992 26.30859375 C-152.23898891 21.23898891 -152.23898891 21.23898891 -150 19 C-147.48266602 19.01245117 -147.48266602 19.01245117 -144.19140625 19.35546875 C-134.443216 20.19315537 -124.71806211 20.2870121 -114.9375 20.3125 C-113.48792404 20.31642761 -113.48792404 20.31642761 -112.00906372 20.32043457 C-95.32676307 20.32525361 -79.42257848 19.08350093 -63 16 C-62.11747559 15.84515137 -61.23495117 15.69030273 -60.32568359 15.53076172 C-42.86587722 12.45322802 -25.73824623 7.10082214 -9.22607422 0.68994141 C-3.33505697 -1.51676224 -3.33505697 -1.51676224 0 0 Z " fill="#FCFCFC" transform="translate(320,177)"/>
<path d="M0 0 C1.9035766 0.45731955 3.80722016 0.91436045 5.7109375 1.37109375 C6.5364209 1.57532959 7.3619043 1.77956543 8.21240234 1.98999023 C10.67353367 2.57401705 13.1420269 3.08066721 15.625 3.5625 C15.625 4.2225 15.625 4.8825 15.625 5.5625 C13.7408157 7.04426745 11.85302225 8.40236613 9.875 9.75 C3.80195422 13.98447518 -2.15247437 18.35344561 -8.0625 22.8125 C-14.61596347 27.75011756 -21.19480851 32.64882811 -27.8125 37.5 C-34.67573071 42.53844582 -41.47929538 47.65040574 -48.25 52.8125 C-49.13292725 53.48474609 -50.01585449 54.15699219 -50.92553711 54.84960938 C-54.77946211 57.79048627 -58.62036183 60.74343593 -62.4140625 63.76171875 C-63.30569092 64.46603027 -63.30569092 64.46603027 -64.21533203 65.18457031 C-65.74322769 66.3955591 -67.26265529 67.61721172 -68.78125 68.83984375 C-71.62087049 70.72579652 -72.96576062 71.55754471 -76.375 71.5625 C-79.34576915 70.53862868 -82.08455993 69.1231341 -84.875 67.6875 C-86.55681914 66.85448045 -88.24049019 66.02519166 -89.92578125 65.19921875 C-90.8070166 64.76657715 -91.68825195 64.33393555 -92.59619141 63.88818359 C-97.3570088 61.61694493 -102.20653326 59.55796536 -107.0625 57.5 C-108.45275391 56.90952881 -108.45275391 56.90952881 -109.87109375 56.30712891 C-112.03777904 55.38916016 -114.20562391 54.4740874 -116.375 53.5625 C-113.1051442 50.84582358 -109.84415083 48.54987937 -106.1484375 46.453125 C-105.13072266 45.87175781 -104.11300781 45.29039062 -103.06445312 44.69140625 C-101.42379883 43.76134766 -101.42379883 43.76134766 -99.75 42.8125 C-97.39164541 41.46630184 -95.03547413 40.116311 -92.6796875 38.765625 C-92.0752179 38.41939087 -91.47074829 38.07315674 -90.84796143 37.71643066 C-84.48437796 34.06457389 -78.17836453 30.31716684 -71.875 26.5625 C-61.6733526 20.49159467 -51.4226865 14.51540108 -41.125 8.609375 C-39.62259766 7.74699219 -39.62259766 7.74699219 -38.08984375 6.8671875 C-37.12288574 6.31901367 -36.15592773 5.77083984 -35.15966797 5.20605469 C-33.33634441 4.12990054 -31.54563694 2.99597543 -29.79736328 1.80175781 C-19.94530624 -4.82574287 -10.99617738 -2.75283613 0 0 Z " fill="#FCDBA8" transform="translate(138.375,326.4375)"/>
<path d="M0 0 C0.33 0 0.66 0 1 0 C0.91240742 2.54320516 0.80546587 5.08316933 0.6875 7.625 C0.66494141 8.33785156 0.64238281 9.05070312 0.61914062 9.78515625 C0.3778669 14.56676272 -0.6318847 17.7507854 -3 22 C-6.48085672 32.70875332 -2.83249002 42.97924787 1 53 C5.54457006 64.89076428 9.63689097 76.46786394 12 89 C12.14953125 89.74862305 12.2990625 90.49724609 12.453125 91.26855469 C14.954942 104.23594671 15.28879125 117.15045764 15.3125 130.3125 C15.31787781 131.5107692 15.31787781 131.5107692 15.32336426 132.73324585 C15.35952496 147.71397047 13.98449294 162.29978475 11 177 C-7.90745764 148.63881354 -20.1292926 105.91973167 -21 72 C-21.02046387 71.21625 -21.04092773 70.4325 -21.06201172 69.625 C-21.30253112 58.93878272 -21.35376241 48.4837119 -19 38 C-18.75507813 36.88753906 -18.51015625 35.77507812 -18.2578125 34.62890625 C-15.07602994 22.00032679 -8.96035156 9.58368036 0 0 Z " fill="#729ECB" transform="translate(235,313)"/>
<path d="M0 0 C0.7425 0.845625 1.485 1.69125 2.25 2.5625 C4.62919267 5.21419305 4.62919267 5.21419305 6.9375 5 C8.6729095 4.15858933 10.39997987 3.30001006 12.125 2.4375 C15 1 15 1 17 1 C18.04618484 29.91225703 15.32645814 57.98001161 11.77832031 86.65478516 C10.75266985 94.95947353 9.81656332 103.27385562 8.88269043 111.58926392 C8.26584549 117.06073115 7.63143584 122.53020118 7 128 C-0.19835442 127.422596 -7.38483918 126.79544639 -14.5625 126 C-15.34173828 125.9175 -16.12097656 125.835 -16.92382812 125.75 C-20.09440751 125.40044431 -22.96431657 125.01189448 -26 124 C-25.40137061 117.92340378 -24.50269589 112.05115943 -23.21484375 106.0859375 C-22.94999428 104.83259865 -22.94999428 104.83259865 -22.67979431 103.55393982 C-22.10282609 100.82680596 -21.52011095 98.10093338 -20.9375 95.375 C-20.11404738 91.49127372 -19.29349365 87.60693598 -18.47265625 83.72265625 C-18.26459351 82.74018417 -18.05653076 81.7577121 -17.84216309 80.74546814 C-15.97444333 71.91467273 -14.16518642 63.07248628 -12.36651611 54.22741699 C-9.82198347 41.72561909 -7.23346761 29.23408838 -4.52716064 16.76620483 C-4.21979099 15.34981334 -3.91357919 13.93317003 -3.60858154 12.51626587 C-3.19224104 10.58550485 -2.77011551 8.65599394 -2.34765625 6.7265625 C-2.11054932 5.63939941 -1.87344238 4.55223633 -1.62915039 3.43212891 C-1 1 -1 1 0 0 Z " fill="#C74B5A" transform="translate(193,358)"/>
<path d="M0 0 C0.495 1.485 0.495 1.485 1 3 C-0.2375 4.051875 -0.2375 4.051875 -1.5 5.125 C-4.30423396 7.78627227 -4.30423396 7.78627227 -4.3125 11.3125 C-4.209375 12.199375 -4.10625 13.08625 -4 14 C1.08758683 14.29926981 3.79967972 13.88021962 8 11 C8.66 11 9.32 11 10 11 C10.16645996 19.48945783 10.16645996 19.48945783 9 23 C6.7421875 24.6328125 6.7421875 24.6328125 3.875 26.125 C-5.33175013 31.62513644 -9.12837717 40.0189793 -12 50 C-12.71184438 52.92038718 -13.27700215 55.85514647 -13.8125 58.8125 C-13.97427734 59.6777832 -14.13605469 60.54306641 -14.30273438 61.43457031 C-15.42356796 67.53711628 -16.44620085 73.65460134 -17.44921875 79.77734375 C-17.64050102 80.94116325 -17.64050102 80.94116325 -17.83564758 82.12849426 C-18.47228838 86.00719445 -19.10177515 89.88680473 -19.71801758 93.76879883 C-20.92906846 101.29411379 -22.30486459 108.74487497 -24.04296875 116.16796875 C-24.2825531 117.19262238 -24.2825531 117.19262238 -24.52697754 118.23797607 C-26.95465507 128.28898294 -29.86795542 138.06865999 -38 145 C-41.78793748 147.24033656 -44.58976405 147.37374881 -49 147 C-56.97512631 144.82496555 -61.53647835 138.95123277 -65.8046875 132.10546875 C-69.68763764 125.16632101 -72.96769069 118.11041739 -71 110 C-68.97579677 107.90979015 -66.82950094 106.47002669 -64.40234375 104.87109375 C-60.38589639 101.74283637 -58.29279227 97.46869709 -56 93 C-52.64866677 94.67566662 -52.27945274 98.12670213 -51.07421875 101.52734375 C-49.62311384 106.21837017 -48.49652003 110.97550927 -47.48291016 115.77954102 C-47.00776687 118.00995291 -47.00776687 118.00995291 -46 121 C-44.515 121.495 -44.515 121.495 -43 122 C-42.98582031 121.02804687 -42.97164063 120.05609375 -42.95703125 119.0546875 C-42.3461211 97.38345364 -35.40335114 77.26864854 -28.63378906 56.86914062 C-25.63909103 47.76186725 -23.15689012 38.89718424 -21.68237305 29.41503906 C-19.06573093 16.31965803 -10.12466271 7.94091193 0 0 Z " fill="#FBD1B0" transform="translate(384,148)"/>
<path d="M0 0 C0.495 3.465 0.495 3.465 1 7 C4.63 7.33 8.26 7.66 12 8 C7.58936273 13.27879487 2.94167559 18.19628891 -1.93310547 23.04663086 C-2.7045137 23.81818512 -3.47592194 24.58973938 -4.27070618 25.38467407 C-6.80050144 27.91377718 -9.33381162 30.43932775 -11.8671875 32.96484375 C-13.63003021 34.7258198 -15.39265109 36.48701795 -17.15505981 38.24842834 C-21.77895781 42.86852067 -26.40585181 47.48560112 -31.03338623 52.10205078 C-35.76132989 56.81919268 -40.48587559 61.53973751 -45.2109375 66.25976562 C-54.47117514 75.50930035 -63.73448525 84.75575165 -73 94 C-75.90672132 91.25000122 -77.47642251 88.44585416 -79.3125 84.875 C-81.89288696 79.95030404 -84.64202874 75.37990346 -87.93359375 70.90234375 C-89 69 -89 69 -89 65 C-87.58911133 63.51464844 -87.58911133 63.51464844 -85.58203125 62.109375 C-84.83308594 61.573125 -84.08414063 61.036875 -83.3125 60.484375 C-82.4875 59.91203125 -81.6625 59.3396875 -80.8125 58.75 C-79.0572699 57.49664356 -77.30341194 56.24136377 -75.55078125 54.984375 C-74.63506348 54.33146484 -73.7193457 53.67855469 -72.77587891 53.00585938 C-68.28273027 49.75909515 -63.89446235 46.37846331 -59.5 43 C-52.00073034 37.25835006 -44.44292659 31.60579203 -36.82788086 26.01879883 C-31.71822017 22.26949187 -26.63006911 18.49350695 -21.5625 14.6875 C-20.9135376 14.20087891 -20.2645752 13.71425781 -19.59594727 13.21289062 C-16.52361143 10.90657954 -13.45980441 8.59014706 -10.41015625 6.25390625 C-9.85320068 5.82956299 -9.29624512 5.40521973 -8.72241211 4.96801758 C-7.23149002 3.83119803 -5.74449636 2.68923154 -4.2578125 1.546875 C-2 0 -2 0 0 0 Z " fill="#C58F54" transform="translate(157,336)"/>
<path d="M0 0 C2.21145012 3.31717518 2.80570284 5.80489642 3.69140625 9.6796875 C3.91666237 10.65435471 3.91666237 10.65435471 4.14646912 11.64871216 C4.62427991 13.72285988 5.09340806 15.79886504 5.5625 17.875 C5.88161037 19.2644496 6.20126601 20.65377409 6.52148438 22.04296875 C7.74030451 27.35043247 8.95828503 32.65434077 10 38 C6.87008812 39.04330396 4.29838704 39.27975807 1.01171875 39.5 C-0.16970703 39.5825 -1.35113281 39.665 -2.56835938 39.75 C-3.80392578 39.8325 -5.03949219 39.915 -6.3125 40 C-8.74627183 40.16404571 -11.17987432 40.33062747 -13.61328125 40.5 C-15.23423706 40.60828125 -15.23423706 40.60828125 -16.88793945 40.71875 C-19.97495842 40.95598403 -19.97495842 40.95598403 -22.89892578 41.49780273 C-26.59283723 42.09600584 -30.27244957 42.33398024 -34.00390625 42.53515625 C-34.76364243 42.57813339 -35.5233786 42.62111053 -36.30613708 42.66539001 C-37.91046183 42.75521363 -39.5148811 42.84336292 -41.11938477 42.92993164 C-43.53107882 43.06079502 -45.94227472 43.19895616 -48.35351562 43.33789062 C-57.24849463 43.83589397 -66.08841436 44.13377783 -75 44 C-75.57391423 39.81966061 -76.1434389 35.6387532 -76.70898438 31.45727539 C-76.90180218 30.03621462 -77.09579789 28.61531315 -77.29101562 27.19458008 C-77.57214628 25.14705962 -77.84897213 23.09899509 -78.125 21.05078125 C-78.29257812 19.82012939 -78.46015625 18.58947754 -78.6328125 17.3215332 C-78.94407071 14.50592948 -79.07508639 11.82747187 -79 9 C-70.22007048 9.7072721 -61.57780817 10.83148702 -52.92578125 12.50390625 C-52.21968719 12.6401239 -51.51359314 12.77634155 -50.78610229 12.91668701 C-47.21466215 13.61061536 -43.64780725 14.32317478 -40.08398438 15.05517578 C-38.73962073 15.32212852 -37.39522114 15.58890029 -36.05078125 15.85546875 C-34.86137939 16.09934326 -33.67197754 16.34321777 -32.4465332 16.59448242 C-26.64809577 17.27672402 -22.21912161 16.69764668 -17.51953125 13.1640625 C-16.74802734 12.59429687 -15.97652344 12.02453125 -15.18164062 11.4375 C-14.00891602 10.5403125 -14.00891602 10.5403125 -12.8125 9.625 C-12.01908203 9.03460938 -11.22566406 8.44421875 -10.40820312 7.8359375 C-8.26254883 6.23615495 -6.13001325 4.62050929 -4 3 C-2.66737681 1.99905384 -1.33425127 0.99877491 0 0 Z " fill="#FC7785" transform="translate(482,296)"/>
<path d="M0 0 C1.01707031 0.29003906 1.01707031 0.29003906 2.0546875 0.5859375 C8.32924309 2.34142258 14.59276664 3.81862292 21 5 C21.91700131 8.04277706 21.97606974 10.47029947 21.75 13.625 C21.6710781 19.53537328 23.6916926 24.15402859 27 29 C30.60607259 31.4040484 32.15035525 31.21044325 36.42578125 31.125 C38.33327148 31.10179687 38.33327148 31.10179687 40.27929688 31.078125 C41.62372045 31.05327368 42.96812233 31.02722134 44.3125 31 C46.93342457 30.94878506 49.55454909 30.90678857 52.17578125 30.875 C53.34020752 30.85179687 54.50463379 30.82859375 55.7043457 30.8046875 C59.12721722 31.00753936 61.81286267 31.77122416 65 33 C65 33.66 65 34.32 65 35 C61.1080583 36.20871119 57.21604605 37.41719492 53.32397461 38.62548828 C52.00624794 39.03460891 50.68853894 39.44378647 49.37084961 39.85302734 C48.73735596 40.04977051 48.1038623 40.24651367 47.45117188 40.44921875 C46.81813644 40.64591156 46.18510101 40.84260437 45.53288269 41.04525757 C44.2460557 41.444369 42.95887025 41.84232635 41.67134094 42.23916626 C38.63711909 43.17512403 35.61048508 44.1274289 32.5925293 45.11474609 C25.17182675 47.51154324 17.90512415 49.04462657 10.1875 50.125 C9.14013672 50.28097656 8.09277344 50.43695313 7.01367188 50.59765625 C4.83279965 50.91771148 2.65024426 51.2264664 0.46630859 51.52490234 C-1.90838483 51.85038152 -4.28045207 52.19545095 -6.64990234 52.55712891 C-17.79311558 54.15062671 -28.75866233 54.23262119 -40 54.125 C-41.85416176 54.11493715 -43.70832889 54.10581721 -45.5625 54.09765625 C-50.04180273 54.07593439 -54.52083953 54.0415922 -59 54 C-56.34965909 48.26856299 -52.40301707 45.89772217 -46.53222656 43.71875 C-45.8615918 43.4815625 -45.19095703 43.244375 -44.5 43 C-43.79584961 42.7421875 -43.09169922 42.484375 -42.36621094 42.21875 C-38.03479869 40.65435731 -33.67423309 39.2823864 -29.25 38 C-19.75449255 35.13365427 -10.50926483 31.68006474 -5 23 C-4.31284475 21.67710927 -3.64067897 20.34601362 -3 19 C-2.34 19 -1.68 19 -1 19 C-0.82984375 19.56589844 -0.6596875 20.13179687 -0.484375 20.71484375 C-0.24203125 21.44832031 0.0003125 22.18179688 0.25 22.9375 C0.59804687 24.03384766 0.59804687 24.03384766 0.953125 25.15234375 C1.8507553 27.20570556 1.8507553 27.20570556 4.109375 27.75390625 C5.04523438 27.87572266 5.04523438 27.87572266 6 28 C5.60167969 26.62328125 5.60167969 26.62328125 5.1953125 25.21875 C4.11981109 21.48197138 3.0565221 17.74218516 2 14 C1.76539063 13.175 1.53078125 12.35 1.2890625 11.5 C0.2324783 7.5799195 -0.20288524 4.05770476 0 0 Z " fill="#FCD1B0" transform="translate(245,139)"/>
<path d="M0 0 C6.29569047 4.34865813 13.4319635 9.67479676 15.9296875 17.16796875 C14.76695312 17.19375 13.60421875 17.21953125 12.40625 17.24609375 C-9.48548854 17.93784871 -33.77035159 22.2470767 -50.0703125 38.16796875 C-52.80304255 41.96638739 -55.0140911 45.97140779 -57.0703125 50.16796875 C-62.25347805 48.79595434 -65.13436482 45.46426755 -68.0703125 41.16796875 C-70.9265316 35.18350969 -71.2395305 28.92535863 -69.265625 22.58203125 C-63.44311458 9.85281882 -52.54718409 0.80018483 -39.9453125 -4.76953125 C-26.15823703 -9.6460409 -12.46358719 -7.43692416 0 0 Z " fill="#4D3841" transform="translate(266.0703125,26.83203125)"/>
<path d="M0 0 C1 2 1 2 0.22265625 4.57421875 C-0.35162109 6.11529297 -0.35162109 6.11529297 -0.9375 7.6875 C-2.59534795 12.42176684 -3.4524413 16.02314571 -3 21 C1.51478398 20.46884894 4.34666857 18.63379708 8 16 C8.33 16.66 8.66 17.32 9 18 C8.27518312 19.74614975 7.54492829 21.490559 6.76953125 23.21484375 C2.65101874 32.76895654 5.41306437 42.76061804 9 52 C11.11586296 56.76557819 13.50830022 61.38647975 15.94433594 65.99462891 C16.96270127 67.92914622 17.95658419 69.87442238 18.9453125 71.82421875 C26.74552761 87.04444047 36.8706334 105.10513116 50.875 115.375 C52 117 52 117 51.9375 120.1875 C50.51285506 125.98105608 48.42466933 130.90402039 44 135 C40.02345111 133.6744837 38.39852074 131.08925397 35.9375 127.875 C35.45144287 127.24464844 34.96538574 126.61429687 34.46459961 125.96484375 C22.28187172 109.98230741 12.59576102 92.73008133 3.9609375 74.6015625 C3.61247772 73.87216461 3.26401794 73.14276672 2.90499878 72.39126587 C1.17719918 68.76878796 -0.53359445 65.13977223 -2.21728516 61.49658203 C-5.56675426 54.34785103 -8.9781035 48.11645487 -14.22949219 42.12207031 C-17.01995201 38.77752029 -18.84557622 36.08356184 -19.46484375 31.73828125 C-18.8557175 26.83967768 -17.01858888 23.41548799 -14.5625 19.1875 C-13.89275146 18.00534912 -13.89275146 18.00534912 -13.20947266 16.79931641 C-9.50457089 10.45122776 -5.31375742 5.10839481 0 0 Z " fill="#FBD1B0" transform="translate(120,173)"/>
<path d="M0 0 C1.22203125 0.09796875 2.4440625 0.1959375 3.703125 0.296875 C4.91484375 0.38453125 6.1265625 0.4721875 7.375 0.5625 C12.77884392 1.29402472 15.82021846 1.78278981 19.55078125 5.9453125 C20.38701958 7.09365868 21.20843392 8.25292844 22.015625 9.421875 C27.7147531 17.48888728 34.19744438 22.53080976 43.953125 25.046875 C47.9952268 25.28761252 52.02319927 25.20770199 56.0703125 25.13671875 C58.47525839 25.11629649 60.8802064 25.09612187 63.28515625 25.07617188 C67.05950007 25.03270676 70.83370044 24.98429541 74.60791016 24.93041992 C78.26203932 24.881994 81.91597798 24.85221945 85.5703125 24.82421875 C86.69138397 24.80246078 87.81245544 24.78070282 88.96749878 24.75828552 C95.378665 24.71791493 100.1121612 25.35624789 105.953125 28.046875 C105.953125 28.706875 105.953125 29.366875 105.953125 30.046875 C73.75558391 34.63757196 41.70326951 38.32350932 9.140625 38.296875 C8.3238327 38.29628082 7.50704041 38.29568665 6.66549683 38.29507446 C-6.83658587 38.25716413 -6.83658587 38.25716413 -8.046875 37.046875 C-8.00725418 34.36485029 -7.89978617 31.72207728 -7.734375 29.046875 C-7.68659912 28.24830078 -7.63882324 27.44972656 -7.58959961 26.62695312 C-7.22254552 20.91996249 -6.73313003 15.23148158 -6.109375 9.546875 C-5.99758911 8.46212891 -5.99758911 8.46212891 -5.88354492 7.35546875 C-5.02548708 0.07731519 -5.02548708 0.07731519 0 0 Z " fill="#BCC1CA" transform="translate(173.046875,195.953125)"/>
<path d="M0 0 C2.97 0.495 2.97 0.495 6 1 C6.14695312 1.90492187 6.14695312 1.90492187 6.296875 2.828125 C7.20574459 7.68587628 7.83227347 10.9354952 12 14 C16.33152168 16.49198423 20.09860673 16.65887582 25 16 C29.62449649 14.44783336 33.65174352 12.43559558 36 8 C36.72351427 6.01985568 37.40265389 4.02178685 38 2 C38.99 2 39.98 2 41 2 C41.17015625 2.60328125 41.3403125 3.2065625 41.515625 3.828125 C42.93052305 8.49427813 44.00855951 11.90985252 48 15 C48.66 15.33 49.32 15.66 50 16 C49.52803341 26.38326504 43.43260655 36.0079861 36 43 C28.97505783 46.51247109 17.3246994 42.54128587 10.0625 40.625 C9.27045166 40.41601074 8.47840332 40.20702148 7.66235352 39.99169922 C2.91048585 38.67755545 -1.51319433 37.04325904 -6 35 C-6.61079388 23.19131835 -5.94292903 10.57413049 0 0 Z " fill="#FBD2B0" transform="translate(250,98)"/>
<path d="M0 0 C1.69954998 0.24236273 3.39917717 0.48418449 5.09887695 0.72549438 C8.6362119 1.22959824 12.17263776 1.73955015 15.70849609 2.25390625 C20.23737052 2.91231862 24.76809719 3.55681232 29.29956055 4.19713402 C32.79871159 4.69296276 36.29686168 5.19557531 39.79473877 5.70030594 C41.46579679 5.940697 43.13714269 6.17909578 44.80877686 6.41544724 C47.13788907 6.74589431 49.46551515 7.08533828 51.79296875 7.42724609 C52.82312859 7.57074745 52.82312859 7.57074745 53.87409973 7.71714783 C57.29624276 8.22992067 60.14036159 8.87782849 63.125 10.6640625 C60.23948681 12.82405476 57.33997318 14.9644292 54.4375 17.1015625 C53.21256836 18.01905273 53.21256836 18.01905273 51.96289062 18.95507812 C51.16689453 19.53837891 50.37089844 20.12167969 49.55078125 20.72265625 C48.82286377 21.26204834 48.09494629 21.80144043 47.3449707 22.35717773 C43.05082365 24.88511892 39.76694575 24.79498437 35.01708984 23.58374023 C34.3308252 23.40399658 33.64456055 23.22425293 32.9375 23.0390625 C7.83597526 17.02632208 -18.20444039 14.76276535 -43.875 12.6640625 C-42.04661807 8.73844983 -39.57115534 5.92205784 -36.5 2.9140625 C-36.03722656 2.40746094 -35.57445312 1.90085937 -35.09765625 1.37890625 C-26.76914418 -6.68866027 -10.42328756 -1.51979161 0 0 Z " fill="#C28C54" transform="translate(412.875,284.3359375)"/>
<path d="M0 0 C4.95 0 9.9 0 15 0 C13.02 2.97 13.02 2.97 11 6 C10.24624346 10.09987204 11.18294706 13.61843776 13.2890625 17.1796875 C18.2408328 23.39873551 24.32095276 27.3645044 32.25 28.44140625 C38.52400465 28.66651521 42.78653485 28.02034861 48.1640625 24.84375 C51.74301952 23.19895273 54.25756101 23.9570252 58 25 C61.03158909 27.02105939 62.65863187 28.41399761 63.44140625 32.05078125 C63.82945096 39.29845501 61.34591941 44.21753558 56.75390625 49.6640625 C54.20619486 52.47934175 51.60661576 55.23933852 49 58 C47.825602 59.34746718 46.6580204 60.70093207 45.5 62.0625 C41.25272976 66.95543602 36.61348935 71.45606074 32 76 C30.66553432 77.33220003 29.33180165 78.66513674 28 80 C28.34317982 74.56829182 28.75590668 70.54173065 32 66 C34.36272208 62.26938619 34.49525499 59.38654419 34 55 C30.94966806 46.20513431 24.72510597 39.17326515 19 32 C0 8.15329341 0 8.15329341 0 0 Z " fill="#729ECA" transform="translate(213,237)"/>
<path d="M0 0 C7.26 0 14.52 0 22 0 C22.29403638 22.82048998 21.12832273 43.76896993 16 66 C15.01 66 14.02 66 13 66 C11.0625 63.76953125 11.0625 63.76953125 9 60.8125 C8.319375 59.84957031 7.63875 58.88664062 6.9375 57.89453125 C6.298125 56.93933594 5.65875 55.98414063 5 55 C4.4846167 54.24227295 3.9692334 53.4845459 3.43823242 52.70385742 C1.80313788 49.62990189 1.4077906 47.2982405 1.05078125 43.84375 C0.92509766 42.65523438 0.79941406 41.46671875 0.66992188 40.2421875 C0.55197266 39.00726563 0.43402344 37.77234375 0.3125 36.5 C0.18294922 35.29601562 0.05339844 34.09203125 -0.08007812 32.8515625 C-1.21611155 21.67155102 -1.24246876 11.18221885 0 0 Z " fill="#FAD1B0" transform="translate(177,239)"/>
<path d="M0 0 C2.85440587 0.14196516 5.70846196 0.28845826 8.5625 0.4375 C9.36236328 0.47681641 10.16222656 0.51613281 10.98632812 0.55664062 C15.71371506 0.80748156 20.32476901 1.25321814 25 2 C26.97641401 8.10969721 27.83040761 14.20170684 28.625 20.5625 C28.7590625 21.57763672 28.893125 22.59277344 29.03125 23.63867188 C29.64765701 28.45356544 30.18298946 33.13414394 30 38 C19.27344291 38.10194194 8.68436922 38.07419152 -2 37 C-2.11346817 28.56553295 -1.98822075 20.17474698 -1.5625 11.75 C-1.52326416 10.92846436 -1.48402832 10.10692871 -1.44360352 9.26049805 C-1.26501394 5.97698646 -1.0448847 3.13465409 0 0 Z " fill="#C64B5A" transform="translate(372,302)"/>
<path d="M0 0 C0.66 0.33 1.32 0.66 2 1 C2.43032837 3.21017456 2.43032837 3.21017456 2.68603516 6.17138672 C2.78598785 7.27698944 2.88594055 8.38259216 2.98892212 9.521698 C3.13749161 11.3324028 3.13749161 11.3324028 3.2890625 13.1796875 C3.39721283 14.4173587 3.50536316 15.65502991 3.61679077 16.9302063 C3.84472767 19.56127359 4.06901761 22.19234714 4.28710938 24.82421875 C4.61879426 28.82407582 4.96924592 32.82210917 5.3203125 36.8203125 C5.53995492 39.37752767 5.75873165 41.93481738 5.9765625 44.4921875 C6.07965729 45.67908173 6.18275208 46.86597595 6.28897095 48.08883667 C6.72836649 53.42419197 7.10064791 58.75790601 7.25146484 64.10986328 C7.27703461 64.96540802 7.30260437 65.82095276 7.32894897 66.7024231 C6.69206036 71.15083511 3.36195329 73.36206287 0 76 C-1.46141059 77.30907274 -2.91980546 78.62152082 -4.375 79.9375 C-7.86153846 83 -7.86153846 83 -9 83 C-10.44608592 54.63129022 -5.68425934 27.70358718 0 0 Z " fill="#C28C54" transform="translate(374,209)"/>
<path d="M0 0 C7.09370469 2.24205174 13.87066105 4.9642449 20.6875 7.9375 C22.19666992 8.58235352 22.19666992 8.58235352 23.73632812 9.24023438 C31.93339275 12.80112138 37.65683044 15.46346054 42 23.625 C42.67597193 24.87299846 43.35306494 26.12039031 44.03125 27.3671875 C44.35996094 27.98045898 44.68867187 28.59373047 45.02734375 29.22558594 C46.87626732 32.598572 48.93655915 35.84489822 50.96875 39.109375 C52 41 52 41 52 43 C33.73384708 37.12399608 17.15727035 29.78258078 7 13 C6.25646807 11.88757658 5.50669418 10.7792936 4.75 9.67578125 C0 2.57861328 0 2.57861328 0 0 Z " fill="#C38D54" transform="translate(25,387)"/>
<path d="M0 0 C3.65111665 6.54158399 3.29887594 12.63879629 3 20 C2.37351562 20.17015625 1.74703125 20.3403125 1.1015625 20.515625 C0.28429687 20.75796875 -0.53296875 21.0003125 -1.375 21.25 C-2.18710937 21.48203125 -2.99921875 21.7140625 -3.8359375 21.953125 C-6.45785454 23.2214892 -6.99382318 24.32423308 -8 27 C-9.32 27 -10.64 27 -12 27 C-12.37125 26.071875 -12.7425 25.14375 -13.125 24.1875 C-15.47662582 20.1897361 -16.56443035 19.3765561 -21 18 C-28.98644297 17.04071245 -28.98644297 17.04071245 -36.2734375 19.5234375 C-37.12808594 20.25433594 -37.12808594 20.25433594 -38 21 C-38.66 21 -39.32 21 -40 21 C-40.99 23.475 -40.99 23.475 -42 26 C-43.32 26 -44.64 26 -46 26 C-42.40659808 15.53146686 -32.30395558 9.52084341 -22.80957031 4.82958984 C-15.41396276 1.43910489 -8.13843359 -0.63830852 0 0 Z " fill="#FAD0AF" transform="translate(300,68)"/>
<path d="M0 0 C0.33 0 0.66 0 1 0 C0.97381592 0.69448242 0.94763184 1.38896484 0.9206543 2.10449219 C0.07599092 20.24618181 0.07599092 20.24618181 6 37 C6.79796394 38.86361546 7.57015518 40.73853951 8.3125 42.625 C8.63863281 43.42164063 8.96476562 44.21828125 9.30078125 45.0390625 C10 47 10 47 10 49 C11.98 49 13.96 49 16 49 C16 49.33 16 49.66 16 50 C10.73648717 50.32225589 6.42482451 49.97203878 2 47 C-6.29857264 39.49253642 -12.66544133 29.47119913 -13.625 18.1875 C-13.61508957 14.81299876 -13.46549546 13.49763217 -11.1328125 11.00390625 C-9.5392214 9.8309187 -7.91562383 8.69768496 -6.265625 7.60546875 C-3.22913307 5.45374774 -1.85900232 3.17579563 0 0 Z " fill="#EB957B" transform="translate(326,245)"/>
<path d="M0 0 C3.4375 1.125 3.4375 1.125 6 3 C7.49193254 6.86147246 7.08280446 8.74287036 5.8125 12.6875 C4.00669257 15.98776875 3.16441591 17.15272439 0 19 C-2.875 19.43359375 -2.875 19.43359375 -6 19.4375 C-7.03125 19.45683594 -8.0625 19.47617188 -9.125 19.49609375 C-12.68369246 18.88202589 -13.85754645 17.86508634 -16 15 C-16.51470588 9.02941176 -16.51470588 9.02941176 -15 6 C-14.34 6 -13.68 6 -13 6 C-12.731875 5.38125 -12.46375 4.7625 -12.1875 4.125 C-9.43052405 -0.80853591 -5.04246667 -0.59938755 0 0 Z " fill="#704934" transform="translate(277,90)"/>
<path d="M0 0 C0 7.25996188 -1.6124085 10.71651235 -6.6640625 15.9140625 C-15.71910112 24 -15.71910112 24 -20 24 C-20.9417885 19.71710469 -21.15470758 16.25676101 -20 12 C-15.33828441 6.330621 -7.38516385 0 0 0 Z " fill="#F6CDAD" transform="translate(419,143)"/>
<path d="M0 0 C3.1954251 0.85730917 4.91548912 2.25367944 6.7578125 5 C8.63338907 11.26406154 6.67706347 18.37637309 5.5625 24.6875 C0.01580861 22.73640252 -2.41685913 19.57412982 -5.75 14.8125 C-6.8459655 11.42497026 -7.02075811 8.20145007 -6.4375 4.6875 C-4.50069976 1.81816632 -3.31160061 0.9340412 0 0 Z " fill="#F7CDAD" transform="translate(224.4375,88.3125)"/>
<path d="M0 0 C1.60875 0.45375 3.2175 0.9075 4.875 1.375 C10.21025182 2.83510134 15.5619641 3.99732527 21 5 C22.30660357 9.29727397 21.6596762 12.60215865 21 17 C13.93398364 16.02987071 8.76986636 14.22263963 3 10 C2.34 10.66 1.68 11.32 1 12 C0.67 8.04 0.34 4.08 0 0 Z " fill="#EB957A" transform="translate(245,139)"/>
<path d="M0 0 C7.26 0 14.52 0 22 0 C22 2.97 22 5.94 22 9 C21.21625 8.505 20.4325 8.01 19.625 7.5 C13.68135296 5.04055985 8.31864704 5.04055985 2.375 7.5 C1.59125 7.995 0.8075 8.49 0 9 C0 6.03 0 3.06 0 0 Z " fill="#EC957B" transform="translate(177,239)"/>
<path d="M0 0 C2.1875 -0.375 2.1875 -0.375 5 0 C6.18559554 1.44906121 7.3654828 2.9040985 8.48828125 4.40234375 C12.60607443 8.75422337 19.21849074 10.40702469 25 11 C21.8745041 13.64465038 18.91211733 14.84414715 15 16 C15 15.34 15 14.68 15 14 C14.28457031 13.92394531 13.56914062 13.84789062 12.83203125 13.76953125 C9.25371528 12.79721643 7.42642525 11.16673456 4.6875 8.6875 C3.80449219 7.90761719 2.92148437 7.12773437 2.01171875 6.32421875 C0 4 0 4 0 0 Z " fill="#75A0CD" transform="translate(281,245)"/>
<path d="M0 0 C5.52140774 3.89008272 7.8097264 7.6503126 10 14 C10.3403125 14.96486328 10.3403125 14.96486328 10.6875 15.94921875 C12.96155958 23.98738767 12.16057352 32.73046381 12 41 C11.67 41 11.34 41 11 41 C10.74476563 39.36804688 10.74476563 39.36804688 10.484375 37.703125 C8.60306602 26.12177103 5.87573821 15.45873622 0.734375 4.83984375 C0 3 0 3 0 0 Z " fill="#4D3841" transform="translate(305,65)"/>
<path d="M0 0 C12.66970387 -0.3690205 12.66970387 -0.3690205 18 2 C18 2.66 18 3.32 18 4 C13.94729935 5.31320599 9.89056918 6.61283628 5.82958984 7.90014648 C4.44917583 8.3398111 3.06992377 8.78314158 1.69189453 9.23022461 C-0.29098952 9.87283916 -2.27770105 10.50208296 -4.265625 11.12890625 C-6.05661621 11.70233765 -6.05661621 11.70233765 -7.88378906 12.28735352 C-10.83602006 12.96249942 -12.22907514 13.08257995 -15 12 C-14.06933716 11.65219482 -14.06933716 11.65219482 -13.11987305 11.29736328 C-10.30758994 10.24384301 -7.49753826 9.18449257 -4.6875 8.125 C-3.71103516 7.76019531 -2.73457031 7.39539063 -1.72851562 7.01953125 C-0.79072266 6.66503906 0.14707031 6.31054688 1.11328125 5.9453125 C1.97735596 5.62062988 2.84143066 5.29594727 3.73168945 4.96142578 C6.21163182 3.99325682 6.21163182 3.99325682 9 2 C6.03 1.67 3.06 1.34 0 1 C0 0.67 0 0.34 0 0 Z " fill="#E2957C" transform="translate(292,170)"/>
<path d="M0 0 C0.05398987 2.27057377 0.09278742 4.54151288 0.125 6.8125 C0.14820313 8.07707031 0.17140625 9.34164062 0.1953125 10.64453125 C0 14 0 14 -2 17 C-4.55965964 15.18346735 -5.83131795 13.67805744 -6.59375 10.61328125 C-7.48194397 3.69949862 -7.48194397 3.69949862 -5.75390625 1.19140625 C-4 0 -4 0 0 0 Z " fill="#694430" transform="translate(303,93)"/>
<path d="M0 0 C0.66 0.66 1.32 1.32 2 2 C12.73491163 5.38400683 23.84751745 5.65520043 35 6 C35 6.33 35 6.66 35 7 C21.8 7 8.6 7 -5 7 C-3.38262276 3.76524552 -2.52370777 2.29427979 0 0 Z " fill="#E69279" transform="translate(191,186)"/>
<path d="M0 0 C3.27420611 3.04033424 5.90212569 6.03734852 8 10 C7.89802632 16.01644737 7.89802632 16.01644737 5.44140625 18.70703125 C4.96574219 19.13371094 4.49007812 19.56039063 4 20 C3.51908942 17.79204578 3.04034821 15.583619 2.5625 13.375 C2.16224609 11.53035156 2.16224609 11.53035156 1.75390625 9.6484375 C1.09088549 6.43982928 0.51270616 3.23552432 0 0 Z " fill="#E8C1A4" transform="translate(181,301)"/>
<path d="M0 0 C0.99 0.33 1.98 0.66 3 1 C4.95065425 5.3534469 5.22148123 9.14741951 5.125 13.875 C5.10695313 15.02742188 5.08890625 16.17984375 5.0703125 17.3671875 C5.03550781 18.67042969 5.03550781 18.67042969 5 20 C3.35 20 1.7 20 0 20 C0.24363281 18.95199219 0.24363281 18.95199219 0.4921875 17.8828125 C1.03117468 14.82302374 1.1327822 11.98009897 1.125 8.875 C1.12757813 7.84117188 1.13015625 6.80734375 1.1328125 5.7421875 C1.11919881 2.90765695 1.11919881 2.90765695 0 0 Z " fill="#EAA78C" transform="translate(298,68)"/>
<path d="M0 0 C0.66 0.66 1.32 1.32 2 2 C1.96712417 4.72869407 1.43602229 7.2966618 1 10 C-0.9375 10.5625 -0.9375 10.5625 -3 11 C-4 10 -4 10 -4.3125 6.625 C-4 3 -4 3 -2 1.0625 C-1.34 0.711875 -0.68 0.36125 0 0 Z " fill="#E9947A" transform="translate(230,94)"/>
<path d="M0 0 C0.33 0 0.66 0 1 0 C0.64455443 6.63498399 -1.13095043 10.63187218 -5 16 C-5.99 15.34 -6.98 14.68 -8 14 C-6.89824464 11.52105044 -5.733707 9.6754554 -4 7.5625 C-2.06299991 5.08071863 -1.01429561 2.95836218 0 0 Z " fill="#D9B49B" transform="translate(175,299)"/>
<path d="M0 0 C2.32590854 3.63423209 2.16265833 6.77088331 2 11 C-0.475 10.01 -0.475 10.01 -3 9 C-3 4.72290301 -2.29379749 3.44069624 0 0 Z " fill="#EAC3A6" transform="translate(178,311)"/>
<path d="M0 0 C0.70511719 0.16371094 1.41023438 0.32742187 2.13671875 0.49609375 C5.09658688 1.01699824 7.81061273 1.09866732 10.8125 1.0625 C11.78832031 1.05347656 12.76414062 1.04445312 13.76953125 1.03515625 C14.50558594 1.02355469 15.24164063 1.01195312 16 1 C15.67 1.99 15.34 2.98 15 4 C13.06280622 4.05406122 11.12518079 4.09282025 9.1875 4.125 C8.10855469 4.14820313 7.02960938 4.17140625 5.91796875 4.1953125 C3 4 3 4 0 2 C0 1.34 0 0.68 0 0 Z " fill="#F09B7F" transform="translate(272,128)"/>
<path d="M0 0 C0.33 0.99 0.66 1.98 1 3 C0.319375 3.53625 -0.36125 4.0725 -1.0625 4.625 C-3.26512602 6.40584657 -5.42047511 8.21131039 -7.5625 10.0625 C-9.97541657 12.14350883 -12.41216529 14.13675901 -15 16 C-12.08763079 9.30901843 -5.73040351 4.29780263 0 0 Z " fill="#EAC3A6" transform="translate(384,148)"/>
<path d="M0 0 C0.99 0 1.98 0 3 0 C3.33 2.31 3.66 4.62 4 7 C2.35 6.67 0.7 6.34 -1 6 C-1 5.34 -1 4.68 -1 4 C-0.34 4 0.32 4 1 4 C0.67 2.68 0.34 1.36 0 0 Z " fill="#F0997E" transform="translate(286,111)"/>
<path d="M0 0 C0.66 0.33 1.32 0.66 2 1 C2 3.31 2 5.62 2 8 C1.01 8.33 0.02 8.66 -1 9 C-0.67 6.03 -0.34 3.06 0 0 Z " fill="#A5784E" transform="translate(374,209)"/>
<path d="M0 0 C0.33 0.99 0.66 1.98 1 3 C-0.32 4.32 -1.64 5.64 -3 7 C-3 3 -3 3 -1.5 1.25 C-1.005 0.8375 -0.51 0.425 0 0 Z " fill="#ECC4A7" transform="translate(172,308)"/>
</svg>
